HIERARCHY
ROOT Hips
{
    OFFSET 0.000000 0.000000 0.000000
    CHANNELS 6 Xposition Yposition Zposition Zrotation Xrotation Yrotation
    JOINT Spine
    {
        OFFSET -0.000000 14.517291 0.000000
        CHANNELS 3 Zrotation Xrotation Yrotation
        JOINT Spine1
        {
            OFFSET -0.000000 37.558300 0.000000
            CHANNELS 3 Zrotation Xrotation Yrotation
            JOINT Neck
            {
                OFFSET -0.000000 37.404057 3.400369
                CHANNELS 3 Zrotation Xrotation Yrotation
                JOINT Head
                {
                    OFFSET -0.000000 24.785618 -3.540803
                    CHANNELS 3 Zrotation Xrotation Yrotation
                    End Site
                    {
                        OFFSET -0.000000 35.408028 0.000000
                    }
                }
            }
            JOINT LeftShoulder
            {
                OFFSET 6.992933 33.973492 -0.192664
                CHANNELS 3 Zrotation Xrotation Yrotation
                JOINT LeftArm
                {
                    OFFSET 21.527611 0.000000 0.000000
                    CHANNELS 3 Zrotation Xrotation Yrotation
                    JOINT LeftForeArm
                    {
                        OFFSET 56.353916 0.000000 0.000000
                        CHANNELS 3 Zrotation Xrotation Yrotation
                        JOINT LeftHand
                        {
                            OFFSET 47.774071 0.000000 0.000000
                            CHANNELS 3 Zrotation Xrotation Yrotation
                            End Site
                            {
                                OFFSET 26.556021 0.000000 0.000000
                            }
                        }
                    }
                }
            }
            JOINT RightShoulder
            {
                OFFSET -7.065357 33.973492 -0.192664
                CHANNELS 3 Zrotation Xrotation Yrotation
                JOINT RightArm
                {
                    OFFSET -21.527611 0.000000 0.000000
                    CHANNELS 3 Zrotation Xrotation Yrotation
                    JOINT RightForeArm
                    {
                        OFFSET -56.353916 0.000000 0.000000
                        CHANNELS 3 Zrotation Xrotation Yrotation
                        JOINT RightHand
                        {
                            OFFSET -47.774071 0.000000 0.000000
                            CHANNELS 3 Zrotation Xrotation Yrotation
                            End Site
                            {
                                OFFSET -26.556021 0.000000 0.000000
                            }
                        }
                    }
                }
            }
        }
    }
    JOINT LeftUpLeg
    {
        OFFSET 17.704014 0.000000 0.000000
        CHANNELS 3 Zrotation Xrotation Yrotation
        JOINT LeftLeg
        {
            OFFSET -0.000000 -81.181816 0.000000
            CHANNELS 3 Zrotation Xrotation Yrotation
            JOINT LeftFoot
            {
                OFFSET -0.000000 -62.821102 0.000000
                CHANNELS 3 Zrotation Xrotation Yrotation
                JOINT LeftToeBase
                {
                    OFFSET -0.000000 -11.507608 26.556021
                    CHANNELS 3 Zrotation Xrotation Yrotation
                    End Site
                    {
                        OFFSET -0.000000 0.000000 7.081605
                    }
                }
            }
        }
    }
    JOINT RightUpLeg
    {
        OFFSET -17.704014 0.000000 0.000000
        CHANNELS 3 Zrotation Xrotation Yrotation
        JOINT RightLeg
        {
            OFFSET -0.000000 -81.181816 0.000000
            CHANNELS 3 Zrotation Xrotation Yrotation
            JOINT RightFoot
            {
                OFFSET -0.000000 -62.821102 0.000000
                CHANNELS 3 Zrotation Xrotation Yrotation
                JOINT RightToeBase
                {
                    OFFSET -0.000000 -11.507608 26.556021
                    CHANNELS 3 Zrotation Xrotation Yrotation
                    End Site
                    {
                        OFFSET -0.000000 0.000000 7.081605
                    }
                }
            }
        }
    }
}
MOTION
Frames:    11
Frame Time:    0.008333
35.808926    159.996368    -96.926559    -2.719142    0.147079    22.880983    -0.815754    -6.047508    -3.125502    -7.957937    3.997344    -0.746387    17.086966    -1.809715    3.649803    1.497278    0.108309    1.175657    9.289099    6.328170    -13.591547    -37.093689    12.056112    -53.178410    -8.753708    -23.173468    -116.157181    -2.693207    -35.264874    -10.806346    -8.740978    2.684868    -8.711246    21.522053    15.671353    16.379093    3.536142    18.787926    33.061424    -3.582960    17.502117    9.677381    9.357471    4.659826    1.562902    -8.471217    18.284821    -16.889587    4.497972    -22.570103    44.881649    0.000000    0.000000    0.000000    -10.691971    -25.318054    -4.964533    10.363588    24.505690    -12.521318    0.902285    9.022321    -12.358471    0.000000    0.000000    0.000000    
35.818516    159.992554    -96.922867    -2.710672    0.128966    22.867136    -0.784983    -6.066117    -3.113188    -7.924406    3.982172    -0.745000    17.097683    -1.780682    3.669067    1.427659    0.113868    1.188367    9.264710    6.338589    -13.593260    -37.095222    12.032881    -53.158207    -8.743343    -23.183727    -116.171379    -2.711473    -35.261848    -10.806019    -8.702973    2.685375    -8.671109    21.379230    15.176342    16.888706    3.284497    18.844860    34.055283    -4.581825    17.509911    9.950019    9.354050    4.681113    1.563343    -8.475212    18.299809    -16.878258    4.495741    -22.590122    44.879272    0.000000    0.000000    0.000000    -10.693107    -25.305443    -4.946661    10.370932    24.518856    -12.491924    0.926690    9.007365    -12.389990    0.000000    0.000000    0.000000    
35.824486    159.991379    -96.923019    -2.707561    0.115072    22.864607    -0.738508    -6.005007    -3.115283    -7.911912    3.822994    -0.758024    17.138832    -1.711743    3.684455    1.333385    0.128528    1.194483    9.223826    6.348576    -13.613476    -37.126099    12.048880    -53.065536    -8.751258    -23.151997    -116.217903    -2.691494    -35.257378    -10.753219    -8.638895    2.735636    -8.624625    21.214764    14.798762    17.306229    2.545084    19.152172    35.605701    -3.274644    18.152311    8.312991    9.354504    4.686069    1.563851    -8.475666    18.317066    -16.864491    4.482923    -22.606230    44.867977    0.000000    0.000000    0.000000    -10.691222    -25.300476    -4.953817    10.366632    24.538546    -12.488399    0.933026    9.002410    -12.393829    0.000000    0.000000    0.000000    
35.829647    159.985931    -96.924644    -2.706171    0.107576    22.856503    -0.732626    -6.102942    -3.104120    -7.845493    3.927394    -0.749271    17.176950    -1.710076    3.720154    1.210792    0.123866    1.208176    9.260132    6.258409    -13.610485    -37.238407    11.992339    -53.035255    -8.789441    -23.040192    -116.192802    -2.634886    -35.207874    -10.762344    -8.630893    2.694736    -8.530932    21.070379    14.287045    17.729208    2.303358    19.225235    36.609192    -3.893108    18.228132    8.546941    9.353018    4.680572    1.572906    -8.473806    18.351854    -16.866072    4.503526    -22.615616    44.876350    0.000000    0.000000    0.000000    -10.689615    -25.304445    -4.946887    10.371558    24.552931    -12.491452    0.926814    9.011099    -12.397128    0.000000    0.000000    0.000000    
35.835384    159.981888    -96.922493    -2.699228    0.087857    22.851885    -0.709577    -6.125134    -3.101311    -7.808821    3.930281    -0.749796    17.214558    -1.704095    3.754747    1.127159    0.151593    1.226729    9.279001    6.292253    -13.533353    -37.222702    12.010562    -53.137421    -8.784545    -23.095137    -116.161278    -2.652626    -35.241364    -10.777524    -8.604900    2.707188    -8.435349    20.935110    14.040091    18.136646    1.782730    19.074259    37.675423    -4.371343    18.181011    8.749875    9.352906    4.692510    1.586298    -8.472705    18.377531    -16.872780    4.504597    -22.636175    44.879124    0.000000    0.000000    0.000000    -10.690274    -25.292675    -4.919938    10.386927    24.567528    -12.513082    0.928958    9.003016    -12.400165    0.000000    0.000000    0.000000    
35.843735    159.973160    -96.918694    -2.685606    0.077306    22.849897    -0.709653    -6.165805    -3.089360    -7.744685    3.948141    -0.746700    17.224771    -1.700865    3.775991    1.063812    0.180775    1.238390    9.275355    6.281834    -13.528571    -37.236912    12.016058    -53.160236    -8.789977    -23.115942    -116.152557    -2.635814    -35.266460    -10.770557    -8.605534    2.695283    -8.333265    20.812069    14.091229    18.494207    0.992374    18.647518    38.721508    -4.923702    17.940952    9.182160    9.342358    4.701260    1.583574    -8.475096    18.397715    -16.865276    4.514768    -22.638002    44.875778    0.000000    0.000000    0.000000    -10.698477    -25.289398    -4.948130    10.372077    24.601749    -12.466908    0.892000    8.986119    -12.387270    0.000000    0.000000    0.000000    
35.846844    159.962585    -96.916748    -2.670155    0.063769    22.850538    -0.716657    -6.182140    -3.081767    -7.664766    3.944174    -0.747104    17.200937    -1.712992    3.792505    1.032153    0.228900    1.252772    9.252814    6.244936    -13.509566    -37.228096    12.055599    -53.175026    -8.763768    -23.172693    -116.138649    -2.649270    -35.277885    -10.759190    -8.622420    2.705986    -8.239602    20.688206    13.721019    18.901352    0.544684    18.654844    39.664436    -5.213278    18.069038    9.225525    9.335997    4.708126    1.586506    -8.479331    18.426418    -16.873764    4.524446    -22.659044    44.879780    0.000000    0.000000    0.000000    -10.711641    -25.277691    -4.933096    10.394044    24.613659    -12.500154    0.871862    8.971457    -12.375967    0.000000    0.000000    0.000000    
35.856281    159.951202    -96.913445    -2.650890    0.052591    22.855806    -0.706268    -6.204663    -3.071793    -7.615935    3.932463    -0.746448    17.159779    -1.698479    3.793226    1.036891    0.261939    1.263052    9.235388    6.248749    -13.514481    -37.903881    11.251673    -53.013058    -9.331751    -21.718559    -116.145027    -2.373719    -34.775925    -10.744605    -8.629065    2.752930    -8.165113    20.567244    13.367205    19.350622    0.083443    18.614397    40.527252    -5.428275    18.165150    9.319157    9.322445    4.718997    1.590881    -8.482643    18.444057    -16.870525    4.537140    -22.666914    44.876602    0.000000    0.000000    0.000000    -10.729445    -25.268612    -4.969230    10.377230    24.644684    -12.468413    0.884182    8.947301    -12.374870    0.000000    0.000000    0.000000    
35.867088    159.938736    -96.906349    -2.623519    0.029435    22.863743    -0.708507    -6.211936    -3.056626    -7.542209    3.920639    -0.744686    17.107037    -1.704460    3.801329    1.050563    0.318395    1.280823    9.193878    6.223765    -13.533175    -37.142803    12.138573    -53.197121    -8.684587    -23.411594    -116.129326    -2.719933    -35.376324    -10.793081    -8.670841    2.779018    -8.105307    20.455990    13.013180    19.801548    -0.327258    18.589552    41.359768    -5.471398    18.288412    9.212482    9.300811    4.747924    1.603186    -8.468953    18.458143    -16.872433    4.535276    -22.679974    44.860985    0.000000    0.000000    0.000000    -10.754114    -25.243227    -4.980907    10.380220    24.674395    -12.459855    0.892658    8.908827    -12.370466    0.000000    0.000000    0.000000    
35.875946    159.927261    -96.900330    -2.598439    0.013451    22.872227    -0.698608    -6.230330    -3.037002    -7.488986    3.913959    -0.740591    17.045206    -1.672539    3.785306    1.077289    0.323451    1.283056    9.159117    6.209368    -13.550668    -37.087616    12.163901    -53.211761    -8.635275    -23.523731    -116.115929    -2.722266    -35.406868    -10.793042    -8.715775    2.787626    -8.032849    20.303932    12.428918    20.214159    -0.365637    18.796223    42.110321    -5.864468    18.483114    9.182352    9.288701    4.773129    1.602920    -8.481545    18.462624    -16.866148    4.541503    -22.692709    44.850395    0.000000    0.000000    0.000000    -10.779249    -25.224873    -5.000569    10.389392    24.702711    -12.469829    0.882292    8.872422    -12.362909    0.000000    0.000000    0.000000    
35.881371    159.917007    -96.893707    -2.576023    -0.001167    22.882877    -0.689348    -6.254694    -3.014980    -7.450532    3.912464    -0.734814    17.045694    -1.663435    3.789763    1.048464    0.376506    1.284500    9.149795    6.220339    -13.578134    -37.785641    11.283560    -53.059753    -9.216209    -21.985371    -116.102669    -2.424660    -34.840931    -10.799261    -8.752582    2.762810    -7.946646    20.239456    12.245440    20.627188    -0.829681    18.600119    42.717896    -5.909711    18.457306    9.186722    9.274056    4.791266    1.614675    -8.473410    18.475269    -16.862679    4.536028    -22.700945    44.821693    0.000000    0.000000    0.000000    -10.798474    -25.211128    -5.004331    10.388166    24.732971    -12.459542    0.888105    8.839156    -12.371729    0.000000    0.000000    0.000000    
